<?xml version="1.0" standalone="no"?>
<!DOCTYPE svg PUBLIC "-//W3C//DTD SVG 20010904//EN"
 "http://www.w3.org/TR/2001/REC-SVG-20010904/DTD/svg10.dtd">
<svg version="1.0" xmlns="http://www.w3.org/2000/svg"
 width="65.000000pt" height="65.000000pt" viewBox="0 0 65.000000 65.000000"
 preserveAspectRatio="xMidYMid meet">

      <g fill="#000000" stroke="none" transform="translate(20.000000,60.000000) scale(0.100000,-0.100000)">
        <path
          d="M251 574 c-33 -24 -51 -74 -51 -144 l0 -60 115 0 115 0 0 33 0 34
          -72 -2 c-91 -2 -98 1 -98 35 0 31 27 60 57 60 21 0 53 -29 53 -48 0 -7 14 -12
         30 -12 34 0 39 19 18 65 -23 51 -118 73 -167 39z"
        />
        <path d="M305 489 c-10 -15 1 -23 20 -15 9 3 13 10 10 16 -8 13 -22 13 -30 -1z" />
        <path d="M230 310 l0 -30 90 0 90 0 0 30 0 30 -90 0 -90 0 0 -30z" />
        <path
          d="M280 190 c0 -56 -3 -70 -15 -70 -8 0 -15 -9 -15 -20 0 -18 7 -20 70
          -20 63 0 70 2 70 20 0 13 -7 20 -20 20 -18 0 -20 7 -20 70 l0 70 -35 0 -35 0
          0 -70z"
        />
      </g>
</svg>
